<svg xmlns="http://www.w3.org/2000/svg" xmlns:xlink="http://www.w3.org/1999/xlink" width="710" height="490"><g transform="translate(-10 -5.000000000000057)"><path d="M0 0h1360v1760H0z" fill="#fff"/><path d="M475 425c0 27.6-22.4 50-50 50-27.62 0-50-22.4-50-50s22.38-50 50-50c27.6 0 50 22.4 50 50z" stroke="#9b0d28" stroke-width="6" fill="#ff8f80"/><use xlink:href="#a" transform="matrix(1,0,0,1,379.9969250307497,379.999999934) translate(45 50.4)"/><path d="M380 402.5h90v45h-90z" fill="none"/><use xlink:href="#b" transform="matrix(1,0,0,1,384.9969250307497,407.499999934) translate(8.20987654320988 21.944444444444443)"/><path d="M175 75c0 27.6-22.4 50-50 50s-50-22.4-50-50 22.4-50 50-50 50 22.4 50 50z" stroke="#498a44" stroke-width="6" fill="#a3d977"/><use xlink:href="#a" transform="matrix(1,0,0,1,80.00000000000001,30.000000000000057) translate(45 50.4)"/><path d="M125 125v100" stroke="#000" stroke-width="8" fill="none"/><path d="M125 125h-4v-.2zm4 0h-4l3.6-.13.4-.05zM125 225l-4.64-14.27h9.28z"/><path d="M129.14 225.2L125 225l-3.6.13-.54.06-6-18.47h20.28z"/><path d="M80 43.33h90v63.34H80z" fill="none"/><use xlink:href="#c" transform="matrix(1,0,0,1,85.00000000000001,48.33333333333326) translate(2.4074074074074048 31.444444444444443)"/><path d="M30 135h100v65H30z" fill="none"/><use xlink:href="#d" transform="matrix(1,0,0,1,35,140) translate(6.203703703703702 31.944444444444443)"/><path d="M175 275c0 27.6-22.4 50-50 50s-50-22.4-50-50 22.4-50 50-50 50 22.4 50 50z" stroke="#498a44" stroke-width="6" fill="#a3d977"/><use xlink:href="#a" transform="matrix(1,0,0,1,80.00000000000001,230) translate(45 50.4)"/><path d="M475 143c0 27.6-22.4 50-50 50s-50-22.4-50-50 22.4-50 50-50 50 22.4 50 50z" stroke="#e0b036" stroke-width="6" fill="#ffdf71"/><use xlink:href="#e" transform="matrix(1,0,0,1,380.00000000000006,98) translate(45 50.4)"/><path d="M175 275l4.35-.1 4.14-.25 3.95-.42 3.82-.56 3.7-.7 3.6-.85 3.52-.98 3.46-1.13 3.44-1.27 3.42-1.44 3.43-1.62 3.47-1.82 3.52-2.03 3.62-2.3 3.75-2.6 3.94-3 4.2-3.47 4.6-4.13 5.17-5.1 6.27-6.66 8.96-10.43 32.45-39.6 6.36-6.78 5.3-5.2 4.68-4.22 4.3-3.57 4.06-3.07 3.87-2.7 3.73-2.36 3.65-2.1 3.6-1.9 3.56-1.67 3.55-1.5 3.58-1.33 3.63-1.17 3.68-1.03 3.77-.9 3.9-.73 4-.58 4.18-.44 4.36-.27h.2" stroke="#000" stroke-width="8" fill="none"/><path d="M175.3 279l-.5.03.2-4.03v-.07zM373.75 143l-13.64 6.24-1.05-9.2z"/><path d="M375.2 139.2l-.2 3.8.13 3.6.02.16-18.38 8.4-2.33-20.14z"/><path d="M80 252.5h90v45H80z" fill="none"/><use xlink:href="#f" transform="matrix(1,0,0,1,85.00000000000001,257.5) translate(6.728395061728399 21.944444444444443)"/><path d="M225 111.5h100v65H225z" fill="none"/><use xlink:href="#g" transform="matrix(1,0,0,1,230,116.5) translate(-1.790123456790127 31.944444444444443)"/><path d="M380 121h90v45h-90z" fill="none"/><use xlink:href="#h" transform="matrix(1,0,0,1,385.00000000000006,126) translate(-2.5308641975308603 21.944444444444443)"/><path d="M485 275c0 27.6-22.4 50-50 50-27.62 0-50-22.4-50-50s22.38-50 50-50c27.6 0 50 22.4 50 50z" stroke="#e0b036" stroke-width="6" fill="#ffdf71"/><use xlink:href="#e" transform="matrix(1,0,0,1,389.9975542852676,230) translate(45 50.4)"/><path d="M175 275h208.75" stroke="#000" stroke-width="8" fill="none"/><path d="M175 279h-.2l.2-4-.13-3.6-.05-.4h.18zM383.75 275l-14.27 4.64v-9.28z"/><path d="M385.18 271.26L385 275l.12 3.6.02.15-19.66 6.4v-20.3z"/><path d="M255 225h100v65H255z" fill="none"/><use xlink:href="#i" transform="matrix(1,0,0,1,260,230) translate(25.895061728395063 31.944444444444443)"/><path d="M390 230.5h90v90h-90z" fill="none"/><use xlink:href="#j" transform="matrix(1,0,0,1,394.9975542852676,235.5) translate(14.074074074074073 45.833333333333336)"/><path d="M175 275l4.08.08 3.88.25 3.7.4 3.57.5 3.45.67 3.34.8 3.27.9 3.2 1.04 3.16 1.18 3.13 1.3 3.1 1.48 3.14 1.64 3.16 1.82 3.2 2.04 3.28 2.27 3.37 2.57 3.52 2.9 3.7 3.35 3.98 3.88 4.35 4.63 4.93 5.74 5.97 7.55 8.6 11.9 30.4 44.1 5.97 7.56 4.93 5.73 4.35 4.62 3.97 3.9 3.7 3.33 3.52 2.9 3.38 2.58 3.27 2.27 3.2 2.04 3.15 1.82 3.13 1.64 3.13 1.47 3.14 1.3 3.16 1.2 3.2 1.03 3.27.9 3.35.8 3.44.66 3.57.52 3.7.4 3.9.24 4.06.08" stroke="#000" stroke-width="8" fill="none"/><path d="M175.32 271l-.32 4.1v-.1l-.13-3.6-.05-.43zM375 425l-14.6 3.48.75-9.24z"/><path d="M375.2 420.76L375 425l.12 3.6.06.47-19.2 4.58 1.62-20.22z"/><path d="M180 345h100v65H180z" fill="none"/><use xlink:href="#k" transform="matrix(1,0,0,1,185.00000000000003,349.99999999999994) translate(12.376543209876544 18.611111111111114)"/><use xlink:href="#l" transform="matrix(1,0,0,1,185.00000000000003,349.99999999999994) translate(56.75925925925926 18.611111111111114)"/><use xlink:href="#m" transform="matrix(1,0,0,1,185.00000000000003,349.99999999999994) translate(20.401234567901234 45.277777777777786)"/><path d="M500 393.33h200v63.34H500z" fill="none"/><g><use xlink:href="#n" transform="matrix(1,0,0,1,505,398.33333333333337) translate(0 31.444444444444443)"/><use xlink:href="#o" transform="matrix(1,0,0,1,505,398.33333333333337) translate(107.22222222222223 31.444444444444443)"/></g><defs><path d="M136-208V0H84v-208H4v-40h212v40h-80" id="p"/><path d="M110-194c64 0 96 36 96 99 0 64-35 99-97 99-61 0-95-36-95-99 0-62 34-99 96-99zm-1 164c35 0 45-28 45-65 0-40-10-65-43-65-34 0-45 26-45 65 0 36 10 65 43 65" id="q"/><path d="M147 0L96-86 75-71V0H25v-261h50v150l67-79h53l-66 74L201 0h-54" id="r"/><path d="M123 10C108 53 80 86 19 72V37c35 8 53-11 59-39L3-190h52l48 148c12-52 28-100 44-148h51" id="s"/><g id="b"><use transform="matrix(0.06172839506172839,0,0,0.06172839506172839,0,0)" xlink:href="#p"/><use transform="matrix(0.06172839506172839,0,0,0.06172839506172839,11.851851851851851,0)" xlink:href="#q"/><use transform="matrix(0.06172839506172839,0,0,0.06172839506172839,25.370370370370367,0)" xlink:href="#r"/><use transform="matrix(0.06172839506172839,0,0,0.06172839506172839,37.716049382716044,0)" xlink:href="#s"/><use transform="matrix(0.06172839506172839,0,0,0.06172839506172839,50.06172839506172,0)" xlink:href="#q"/></g><path d="M24-248c93 1 206-16 204 79-1 75-69 88-152 82V0H24v-248zm52 121c47 0 100 7 100-41 0-47-54-39-100-39v80" id="t"/><path d="M135-150c-39-12-60 13-60 57V0H25l-1-190h47c2 13-1 29 3 40 6-28 27-53 61-41v41" id="u"/><path d="M25-224v-37h50v37H25zM75 22c2 45-34 59-81 51V38c22 5 31-5 31-27v-201h50V22" id="v"/><path d="M185-48c-13 30-37 53-82 52C43 2 14-33 14-96s30-98 90-98c62 0 83 45 84 108H66c0 31 8 55 39 56 18 0 30-7 34-22zm-45-69c5-46-57-63-70-21-2 6-4 13-4 21h74" id="w"/><path d="M190-63c-7 42-38 67-86 67-59 0-84-38-90-98-12-110 154-137 174-36l-49 2c-2-19-15-32-35-32-30 0-35 28-38 64-6 74 65 87 74 30" id="x"/><path d="M115-3C79 11 28 4 28-45v-112H4v-33h27l15-45h31v45h36v33H77v99c-1 23 16 31 38 25v30" id="y"/><g id="c"><use transform="matrix(0.06172839506172839,0,0,0.06172839506172839,0,0)" xlink:href="#t"/><use transform="matrix(0.06172839506172839,0,0,0.06172839506172839,14.814814814814813,0)" xlink:href="#u"/><use transform="matrix(0.06172839506172839,0,0,0.06172839506172839,23.456790123456788,0)" xlink:href="#q"/><use transform="matrix(0.06172839506172839,0,0,0.06172839506172839,36.9753086419753,0)" xlink:href="#v"/><use transform="matrix(0.06172839506172839,0,0,0.06172839506172839,43.148148148148145,0)" xlink:href="#w"/><use transform="matrix(0.06172839506172839,0,0,0.06172839506172839,55.49382716049382,0)" xlink:href="#x"/><use transform="matrix(0.06172839506172839,0,0,0.06172839506172839,67.8395061728395,0)" xlink:href="#y"/></g><path d="M137-138c1-29-70-34-71-4 15 46 118 7 119 86 1 83-164 76-172 9l43-7c4 19 20 25 44 25 33 8 57-30 24-41C81-84 22-81 20-136c-2-80 154-74 161-7" id="z"/><path d="M85 4C-2 5 27-109 22-190h50c7 57-23 150 33 157 60-5 35-97 40-157h50l1 190h-47c-2-12 1-28-3-38-12 25-28 42-61 42" id="A"/><path d="M135-194c52 0 70 43 70 98 0 56-19 99-73 100-30 1-46-15-58-35L72 0H24l1-261h50v104c11-23 29-37 60-37zM114-30c31 0 40-27 40-66 0-37-7-63-39-63s-41 28-41 65c0 36 8 64 40 64" id="B"/><g id="d"><use transform="matrix(0.06172839506172839,0,0,0.06172839506172839,0,0)" xlink:href="#z"/><use transform="matrix(0.06172839506172839,0,0,0.06172839506172839,12.345679012345679,0)" xlink:href="#A"/><use transform="matrix(0.06172839506172839,0,0,0.06172839506172839,25.864197530864196,0)" xlink:href="#B"/><use transform="matrix(0.06172839506172839,0,0,0.06172839506172839,39.382716049382715,0)" xlink:href="#v"/><use transform="matrix(0.06172839506172839,0,0,0.06172839506172839,45.55555555555556,0)" xlink:href="#w"/><use transform="matrix(0.06172839506172839,0,0,0.06172839506172839,57.901234567901234,0)" xlink:href="#x"/><use transform="matrix(0.06172839506172839,0,0,0.06172839506172839,70.24691358024691,0)" xlink:href="#y"/></g><path d="M169-182c-1-43-94-46-97-3 18 66 151 10 154 114 3 95-165 93-204 36-6-8-10-19-12-30l50-8c3 46 112 56 116 5-17-69-150-10-154-114-4-87 153-88 188-35 5 8 8 18 10 28" id="C"/><path d="M101-251c68 0 84 54 84 127C185-50 166 4 99 4S15-52 14-124c-1-75 17-127 87-127zm-1 216c37-5 36-46 36-89s4-89-36-89c-39 0-36 45-36 89 0 43-3 85 36 89" id="D"/><path d="M23 0v-37h61v-169l-59 37v-38l62-41h46v211h57V0H23" id="E"/><g id="f"><use transform="matrix(0.06172839506172839,0,0,0.06172839506172839,0,0)" xlink:href="#C"/><use transform="matrix(0.06172839506172839,0,0,0.06172839506172839,14.814814814814813,0)" xlink:href="#A"/><use transform="matrix(0.06172839506172839,0,0,0.06172839506172839,28.33333333333333,0)" xlink:href="#B"/><use transform="matrix(0.06172839506172839,0,0,0.06172839506172839,41.85185185185185,0)" xlink:href="#D"/><use transform="matrix(0.06172839506172839,0,0,0.06172839506172839,54.197530864197525,0)" xlink:href="#E"/></g><path d="M25-224v-37h50v37H25zM25 0v-190h50V0H25" id="F"/><path d="M88-194c31-1 46 15 58 34l-1-101h50l1 261h-48c-2-10 0-23-3-31C134-8 116 4 84 4 32 4 16-41 15-95c0-56 19-97 73-99zm17 164c33 0 40-30 41-66 1-37-9-64-41-64s-38 30-39 65c0 43 13 65 39 65" id="G"/><path d="M135-194c87-1 58 113 63 194h-50c-7-57 23-157-34-157-59 0-34 97-39 157H25l-1-190h47c2 12-1 28 3 38 12-26 28-41 61-42" id="H"/><path d="M121-226c-27-7-43 5-38 36h38v33H83V0H34v-157H6v-33h28c-9-59 32-81 87-68v32" id="I"/><g id="g"><use transform="matrix(0.06172839506172839,0,0,0.06172839506172839,0,0)" xlink:href="#F"/><use transform="matrix(0.06172839506172839,0,0,0.06172839506172839,6.172839506172839,0)" xlink:href="#G"/><use transform="matrix(0.06172839506172839,0,0,0.06172839506172839,19.691358024691358,0)" xlink:href="#w"/><use transform="matrix(0.06172839506172839,0,0,0.06172839506172839,32.03703703703704,0)" xlink:href="#H"/><use transform="matrix(0.06172839506172839,0,0,0.06172839506172839,45.55555555555556,0)" xlink:href="#y"/><use transform="matrix(0.06172839506172839,0,0,0.06172839506172839,52.901234567901234,0)" xlink:href="#F"/><use transform="matrix(0.06172839506172839,0,0,0.06172839506172839,59.074074074074076,0)" xlink:href="#I"/><use transform="matrix(0.06172839506172839,0,0,0.06172839506172839,66.41975308641976,0)" xlink:href="#F"/><use transform="matrix(0.06172839506172839,0,0,0.06172839506172839,72.5925925925926,0)" xlink:href="#w"/><use transform="matrix(0.06172839506172839,0,0,0.06172839506172839,84.93827160493828,0)" xlink:href="#u"/></g><path d="M142-158h-39l-4-90h48zm-75 0H28l-4-90h48" id="J"/><g id="h"><use transform="matrix(0.06172839506172839,0,0,0.06172839506172839,0,0)" xlink:href="#J"/><use transform="matrix(0.06172839506172839,0,0,0.06172839506172839,10.493827160493826,0)" xlink:href="#z"/><use transform="matrix(0.06172839506172839,0,0,0.06172839506172839,22.839506172839506,0)" xlink:href="#A"/><use transform="matrix(0.06172839506172839,0,0,0.06172839506172839,36.358024691358025,0)" xlink:href="#B"/><use transform="matrix(0.06172839506172839,0,0,0.06172839506172839,49.876543209876544,0)" xlink:href="#D"/><use transform="matrix(0.06172839506172839,0,0,0.06172839506172839,62.22222222222222,0)" xlink:href="#E"/><use transform="matrix(0.06172839506172839,0,0,0.06172839506172839,74.5679012345679,0)" xlink:href="#J"/></g><path d="M133-34C117-15 103 5 69 4 32 3 11-16 11-54c-1-60 55-63 116-61 1-26-3-47-28-47-18 1-26 9-28 27l-52-2c7-38 36-58 82-57s74 22 75 68l1 82c-1 14 12 18 25 15v27c-30 8-71 5-69-32zm-48 3c29 0 43-24 42-57-32 0-66-3-65 30 0 17 8 27 23 27" id="K"/><path d="M195-6C206 82 75 100 31 46c-4-6-6-13-8-21l49-6c3 16 16 24 34 25 40 0 42-37 40-79-11 22-30 35-61 35-53 0-70-43-70-97 0-56 18-96 73-97 30 0 46 14 59 34l2-30h47zm-90-29c32 0 41-27 41-63 0-35-9-62-40-62-32 0-39 29-40 63 0 36 9 62 39 62" id="L"/><g id="i"><use transform="matrix(0.06172839506172839,0,0,0.06172839506172839,0,0)" xlink:href="#K"/><use transform="matrix(0.06172839506172839,0,0,0.06172839506172839,12.345679012345679,0)" xlink:href="#L"/><use transform="matrix(0.06172839506172839,0,0,0.06172839506172839,25.864197530864196,0)" xlink:href="#w"/></g><path d="M182-182c0 78-84 86-111 141h115V0H12c-6-101 99-100 120-180 1-22-12-31-33-32-23 0-32 14-35 34l-49-3c5-45 32-70 84-70 51 0 83 22 83 69" id="M"/><path d="M139-81c0-46-55-55-73-27H18l9-140h149v37H72l-4 63c44-38 133-4 122 66C201 21 21 35 11-62l49-4c5 18 15 30 39 30 26 0 40-18 40-45" id="N"/><path d="M24 0v-54h51V0H24" id="O"/><path d="M52 0c1-96 47-148 87-207H15v-41h169v40c-36 62-79 113-81 208H52" id="P"/><g id="j"><use transform="matrix(0.07407407407407408,0,0,0.07407407407407408,0,0)" xlink:href="#M"/><use transform="matrix(0.07407407407407408,0,0,0.07407407407407408,14.814814814814817,0)" xlink:href="#N"/><use transform="matrix(0.07407407407407408,0,0,0.07407407407407408,29.629629629629633,0)" xlink:href="#O"/><use transform="matrix(0.07407407407407408,0,0,0.07407407407407408,37.03703703703704,0)" xlink:href="#P"/></g><g id="k"><use transform="matrix(0.06172839506172839,0,0,0.06172839506172839,0,0)" xlink:href="#x"/><use transform="matrix(0.06172839506172839,0,0,0.06172839506172839,12.345679012345679,0)" xlink:href="#F"/><use transform="matrix(0.06172839506172839,0,0,0.06172839506172839,18.51851851851852,0)" xlink:href="#y"/><use transform="matrix(0.06172839506172839,0,0,0.06172839506172839,25.864197530864196,0)" xlink:href="#s"/></g><g id="l"><use transform="matrix(0.06172839506172839,0,0,0.06172839506172839,0,0)" xlink:href="#q"/><use transform="matrix(0.06172839506172839,0,0,0.06172839506172839,13.518518518518517,0)" xlink:href="#I"/></g><path d="M114-157C55-157 80-60 75 0H25v-261h50l-1 109c12-26 28-41 61-42 86-1 58 113 63 194h-50c-7-57 23-157-34-157" id="Q"/><g id="m"><use transform="matrix(0.06172839506172839,0,0,0.06172839506172839,0,0)" xlink:href="#B"/><use transform="matrix(0.06172839506172839,0,0,0.06172839506172839,13.518518518518517,0)" xlink:href="#F"/><use transform="matrix(0.06172839506172839,0,0,0.06172839506172839,19.691358024691358,0)" xlink:href="#u"/><use transform="matrix(0.06172839506172839,0,0,0.06172839506172839,28.333333333333332,0)" xlink:href="#y"/><use transform="matrix(0.06172839506172839,0,0,0.06172839506172839,35.67901234567901,0)" xlink:href="#Q"/></g><path d="M240-174c0 40-23 61-54 70L253 0h-59l-57-94H76V0H24v-248c93 4 217-23 216 74zM76-134c48-2 112 12 112-38 0-48-66-32-112-35v73" id="R"/><g id="n"><use transform="matrix(0.06172839506172839,0,0,0.06172839506172839,0,0)" xlink:href="#R"/><use transform="matrix(0.06172839506172839,0,0,0.06172839506172839,15.987654320987653,0)" xlink:href="#w"/><use transform="matrix(0.06172839506172839,0,0,0.06172839506172839,28.333333333333332,0)" xlink:href="#z"/><use transform="matrix(0.06172839506172839,0,0,0.06172839506172839,40.67901234567901,0)" xlink:href="#q"/><use transform="matrix(0.06172839506172839,0,0,0.06172839506172839,54.19753086419753,0)" xlink:href="#A"/><use transform="matrix(0.06172839506172839,0,0,0.06172839506172839,67.71604938271605,0)" xlink:href="#u"/><use transform="matrix(0.06172839506172839,0,0,0.06172839506172839,76.35802469135803,0)" xlink:href="#x"/><use transform="matrix(0.06172839506172839,0,0,0.06172839506172839,88.70370370370371,0)" xlink:href="#w"/></g><path d="M175 0L67-191c6 58 2 128 3 191H24v-248h59L193-55c-6-58-2-129-3-193h46V0h-61" id="S"/><g id="o"><use transform="matrix(0.06172839506172839,0,0,0.06172839506172839,0,0)" xlink:href="#S"/><use transform="matrix(0.06172839506172839,0,0,0.06172839506172839,15.987654320987653,0)" xlink:href="#q"/><use transform="matrix(0.06172839506172839,0,0,0.06172839506172839,29.50617283950617,0)" xlink:href="#G"/><use transform="matrix(0.06172839506172839,0,0,0.06172839506172839,43.02469135802469,0)" xlink:href="#w"/></g></defs></g></svg>