<svg xmlns="http://www.w3.org/2000/svg" xmlns:xlink="http://www.w3.org/1999/xlink" width="800" height="682"><g transform="translate(0 -5)"><path d="M0 0h1360v1760H0z" fill="#fff"/><path d="M165 75c0 27.6-22.4 50-50 50s-50-22.4-50-50 22.4-50 50-50 50 22.4 50 50z" stroke="#498a44" stroke-width="6" fill="#a3d977"/><use xlink:href="#a" transform="matrix(1,0,0,1,70,30) translate(45 50.4)"/><path d="M115 125v100" stroke="#000" stroke-width="8" fill="none"/><path d="M115 125h-4v-.2zm4 0h-4l3.6-.13.4-.05zM115 225l-4.64-14.27h9.28z"/><path d="M119.14 225.2L115 225l-3.6.13-.54.06-6-18.47h20.28z"/><path d="M70 43.33h90v63.34H70z" fill="none"/><use xlink:href="#b" transform="matrix(1,0,0,1,75,48.33333333333334) translate(2.4074074074074048 31.444444444444443)"/><path d="M20 135h100v65H20z" fill="none"/><use xlink:href="#c" transform="matrix(1,0,0,1,25,140) translate(6.203703703703702 31.944444444444443)"/><path d="M165 275c0 27.6-22.4 50-50 50s-50-22.4-50-50 22.4-50 50-50 50 22.4 50 50z" stroke="#498a44" stroke-width="6" fill="#a3d977"/><use xlink:href="#a" transform="matrix(1,0,0,1,70,230) translate(45 50.4)"/><path d="M465 143c0 27.6-22.4 50-50 50s-50-22.4-50-50 22.4-50 50-50 50 22.4 50 50z" stroke="#e0b036" stroke-width="6" fill="#ffdf71"/><use xlink:href="#d" transform="matrix(1,0,0,1,370,98) translate(45 50.4)"/><path d="M165 275l4.35-.1 4.14-.25 3.95-.42 3.82-.56 3.7-.7 3.6-.85 3.52-.98 3.46-1.13 3.44-1.27 3.42-1.44 3.43-1.62 3.47-1.82 3.52-2.03 3.62-2.3 3.75-2.6 3.94-3 4.2-3.47 4.6-4.13 5.17-5.1 6.27-6.66 8.96-10.43 32.45-39.6 6.36-6.78 5.3-5.2 4.68-4.22 4.3-3.57 4.06-3.07 3.87-2.7 3.73-2.36 3.65-2.1 3.6-1.9 3.56-1.67 3.55-1.5 3.58-1.33 3.63-1.17 3.68-1.03 3.77-.9 3.9-.73 4-.58 4.18-.44 4.36-.27h.2" stroke="#000" stroke-width="8" fill="none"/><path d="M165.3 279l-.5.03.2-4.03v-.07zM363.75 143l-13.64 6.24-1.05-9.2z"/><path d="M365.2 139.2l-.2 3.8.13 3.6.02.16-18.38 8.4-2.33-20.14z"/><path d="M70 252.5h90v45H70z" fill="none"/><use xlink:href="#e" transform="matrix(1,0,0,1,75,257.5) translate(6.728395061728399 21.944444444444443)"/><path d="M215 111.5h100v65H215z" fill="none"/><use xlink:href="#f" transform="matrix(1,0,0,1,220,116.5) translate(-1.790123456790127 31.944444444444443)"/><path d="M370 121h90v45h-90z" fill="none"/><use xlink:href="#g" transform="matrix(1,0,0,1,375,126) translate(-2.5308641975308603 21.944444444444443)"/><path d="M475 275c0 27.6-22.4 50-50 50-27.62 0-50-22.4-50-50s22.38-50 50-50c27.6 0 50 22.4 50 50z" stroke="#e0b036" stroke-width="6" fill="#ffdf71"/><use xlink:href="#d" transform="matrix(1,0,0,1,379.9975542852676,230) translate(45 50.4)"/><path d="M165 275h208.75" stroke="#000" stroke-width="8" fill="none"/><path d="M165 279h-.2l.2-4-.13-3.6-.05-.4h.18zM373.75 275l-14.27 4.64v-9.28z"/><path d="M375.18 271.26L375 275l.12 3.6.02.15-19.66 6.4v-20.3z"/><path d="M245 225h100v65H245z" fill="none"/><use xlink:href="#h" transform="matrix(1,0,0,1,250,230) translate(25.895061728395063 31.944444444444443)"/><path d="M380 230.5h90v90h-90z" fill="none"/><use xlink:href="#i" transform="matrix(1,0,0,1,384.9975542852676,235.5) translate(14.074074074074073 45.833333333333336)"/><path d="M165 275l5.14.1 4.84.3 4.6.5 4.37.64 4.2.8 4.06.95 3.95 1.1 3.85 1.24 3.78 1.4 3.74 1.58 3.7 1.75 3.74 1.95 3.75 2.16 3.83 2.43 3.93 2.74 4.1 3.1 4.3 3.58 4.68 4.2 5.2 5.1 6.15 6.57 8.38 9.75 34.83 42.86 6.16 6.57 5.2 5.1 4.67 4.2 4.32 3.58 4.1 3.1 3.92 2.74 3.82 2.42 3.74 2.16 3.73 1.95 3.7 1.75 3.75 1.57 3.78 1.4 3.85 1.26 3.94 1.1 4.05.96 4.2.8 4.38.65 4.6.5 4.83.3 5.14.1" stroke="#000" stroke-width="8" fill="none"/><path d="M165.26 271l-.27 4.24V275l-.13-3.6-.05-.42zM380 412l-14.53 3.72.6-9.25z"/><path d="M380.2 407.78L380 412l.13 3.6.06.48-19.07 4.88 1.28-20.24z"/><path d="M170 345h100v65H170z" fill="none"/><use xlink:href="#j" transform="matrix(1,0,0,1,175,350) translate(12.376543209876544 18.611111111111114)"/><use xlink:href="#k" transform="matrix(1,0,0,1,175,350) translate(56.75925925925926 18.611111111111114)"/><use xlink:href="#l" transform="matrix(1,0,0,1,175,350) translate(20.401234567901234 45.277777777777786)"/><path d="M480 617c0 27.6-22.4 50-50 50s-50-22.4-50-50 22.4-50 50-50 50 22.4 50 50z" stroke="#498a44" stroke-width="6" fill="#a3d977"/><use xlink:href="#a" transform="matrix(1,0,0,1,385,572) translate(45 50.4)"/><path d="M430 564v-99" stroke="#000" stroke-width="8" fill="none"/><path d="M434 567h-8v-3h8zM434.64 479.27h-9.28L430 465z"/><path d="M430 462l3.2-.1 6.94 21.37h-20.28l6.96-21.43z"/><path d="M385 585.33h90v63.34h-90z" fill="none"/><use xlink:href="#m" transform="matrix(1,0,0,1,390,590.3333333333336) translate(7.962962962962969 31.444444444444443)"/><path d="M345 482h100v65H345z" fill="none"/><use xlink:href="#n" transform="matrix(1,0,0,1,350,487) translate(25.895061728395063 31.944444444444443)"/><path d="M480 412c0 27.6-22.4 50-50 50s-50-22.4-50-50 22.4-50 50-50 50 22.4 50 50z" stroke="#9b0d28" stroke-width="6" fill="#ff8f80"/><use xlink:href="#a" transform="matrix(1,0,0,1,385,367) translate(45 50.4)"/><path d="M780 340c0 27.6-22.4 50-50 50s-50-22.4-50-50 22.4-50 50-50 50 22.4 50 50z" stroke="#e0b036" stroke-width="6" fill="#ffdf71"/><use xlink:href="#d" transform="matrix(1,0,0,1,685,295) translate(45 50.4)"/><path d="M480 412l6.4-.13 6.13-.4 5.94-.6 5.8-.87 5.72-1.1 5.7-1.33 5.77-1.6 5.9-1.93 6.2-2.3 6.63-2.8 7.45-3.5 9.08-4.77 14.8-8.6 33.58-20.1 9.3-4.86 7.64-3.6 6.86-2.9 6.4-2.37 6.17-2 6.02-1.7 5.98-1.4 6.03-1.14 6.13-.92 6.3-.66 6.5-.4.32-.02" stroke="#000" stroke-width="8" fill="none"/><path d="M480.2 416l-.4.02.2-4.02v-.15zM678.75 340l-13.8 5.9-.83-9.23z"/><path d="M680.2 336.23L680 340l.13 3.6.02.15-18.68 8-1.83-20.2z"/><path d="M385 389.5h90v45h-90z" fill="none"/><use xlink:href="#o" transform="matrix(1,0,0,1,390,394.5) translate(8.20987654320988 21.944444444444443)"/><path d="M530 308.5h100v65H530z" fill="none"/><use xlink:href="#p" transform="matrix(1,0,0,1,535,313.5) translate(19.72222222222222 31.944444444444443)"/><path d="M685 318h90v45h-90z" fill="none"/><use xlink:href="#q" transform="matrix(1,0,0,1,690,323) translate(-2.283950617283942 21.944444444444443)"/><path d="M780 492c0 27.6-22.4 50-50 50s-50-22.4-50-50 22.4-50 50-50 50 22.4 50 50z" stroke="#e0b036" stroke-width="6" fill="#ffdf71"/><use xlink:href="#d" transform="matrix(1,0,0,1,685,447) translate(45 50.4)"/><path d="M480 412l5.42.1 5.22.34 5.07.53 4.97.74 4.9.94 4.85 1.14 4.88 1.36 4.95 1.6 5.07 1.9 5.28 2.22 5.62 2.65 6.15 3.22 7.06 4.08 8.95 5.7 48.4 33.44 6.9 4 6 3.14 5.47 2.57 5.12 2.16 4.9 1.83 4.77 1.55 4.7 1.3 4.66 1.1 4.68.9 4.73.7 4.84.5 4.96.32 5.14.1 5.1-.1" stroke="#000" stroke-width="8" fill="none"/><path d="M480.24 408l-.25 4.26V412l-.13-3.6-.05-.42zM678.75 492l-14.36 4.35.18-9.27z"/><path d="M680.2 488.26L680 492l.13 3.6.02.16-19.87 6 .4-20.27z"/><path d="M530 465.5h100v65H530z" fill="none"/><use xlink:href="#p" transform="matrix(1,0,0,1,535,470.5) translate(19.72222222222222 31.944444444444443)"/><path d="M685 452h90v90h-90z" fill="none"/><use xlink:href="#r" transform="matrix(1,0,0,1,690,457) translate(2.3703703703703667 45.833333333333336)"/><use xlink:href="#s" transform="matrix(1,0,0,1,690,457) translate(14.96296296296296 45.833333333333336)"/><use xlink:href="#t" transform="matrix(1,0,0,1,690,457) translate(40 45.833333333333336)"/><path d="M115 325v292h265" fill="none"/><path d="M118 325c0 1.66-1.34 3-3 3s-3-1.34-3-3 1.34-3 3-3 3 1.34 3 3zm0 24.22c0 1.65-1.34 3-3 3s-3-1.35-3-3c0-1.66 1.34-3 3-3s3 1.34 3 3zm0 24.2c0 1.67-1.34 3-3 3s-3-1.33-3-3c0-1.64 1.34-3 3-3s3 1.36 3 3zm0 24.23c0 1.66-1.34 3-3 3s-3-1.34-3-3c0-1.65 1.34-3 3-3s3 1.35 3 3zm0 24.22c0 1.66-1.34 3-3 3s-3-1.34-3-3 1.34-3 3-3 3 1.34 3 3zm0 24.22c0 1.64-1.34 3-3 3s-3-1.36-3-3c0-1.67 1.34-3 3-3s3 1.33 3 3zm0 24.2c0 1.66-1.34 3-3 3s-3-1.34-3-3c0-1.65 1.34-3 3-3s3 1.35 3 3zm0 24.22c0 1.66-1.34 3-3 3s-3-1.34-3-3 1.34-3 3-3 3 1.34 3 3zm0 24.22c0 1.66-1.34 3-3 3s-3-1.34-3-3 1.34-3 3-3 3 1.34 3 3zm0 24.22c0 1.65-1.34 3-3 3s-3-1.35-3-3c0-1.66 1.34-3 3-3s3 1.34 3 3zm0 24.2c0 1.67-1.34 3-3 3s-3-1.33-3-3c0-1.64 1.34-3 3-3s3 1.36 3 3zm0 24.23c0 1.65-1.34 3-3 3s-3-1.35-3-3c0-1.67 1.34-3 3-3s3 1.33 3 3zm0 24.2c0 1.67-1.34 3-3 3s-3-1.33-3-3c0-1.65 1.34-3 3-3s3 1.35 3 3zm22.83 1.4c0 1.66-1.35 3-3 3-1.66 0-3-1.34-3-3s1.34-3 3-3c1.65 0 3 1.34 3 3zm24.2 0c0 1.66-1.33 3-3 3-1.64 0-3-1.34-3-3s1.36-3 3-3c1.67 0 3 1.34 3 3zm24.23 0c0 1.66-1.34 3-3 3s-3-1.34-3-3 1.34-3 3-3 3 1.34 3 3zm24.22 0c0 1.66-1.34 3-3 3s-3-1.34-3-3 1.34-3 3-3 3 1.34 3 3zm24.22 0c0 1.66-1.35 3-3 3-1.66 0-3-1.34-3-3s1.34-3 3-3c1.65 0 3 1.34 3 3zm24.2 0c0 1.66-1.33 3-3 3-1.64 0-3-1.34-3-3s1.36-3 3-3c1.67 0 3 1.34 3 3zm24.23 0c0 1.66-1.34 3-3 3s-3-1.34-3-3 1.34-3 3-3 3 1.34 3 3zm24.22 0c0 1.66-1.35 3-3 3-1.66 0-3-1.34-3-3s1.34-3 3-3c1.65 0 3 1.34 3 3zm24.22 0c0 1.66-1.35 3-3 3-1.66 0-3-1.34-3-3s1.34-3 3-3c1.65 0 3 1.34 3 3zm24.2 0c0 1.66-1.33 3-3 3-1.64 0-3-1.34-3-3s1.36-3 3-3c1.67 0 3 1.34 3 3zm24.23 0c0 1.66-1.34 3-3 3s-3-1.34-3-3 1.34-3 3-3 3 1.34 3 3z"/><path d="M115 325h-3v-.15zm3 0h-3l3-.1zM380 617l-14.27 4.64v-9.28z"/><path d="M380.15 613.9L380 617l.1 3.12-17.37 5.64v-17.52zm-11.42 3.6l1.56-.5-1.57-.5z"/><path d="M120 542h100v65H120z" fill="none"/><g><use xlink:href="#u" transform="matrix(1,0,0,1,125,547) translate(4.382716049382715 18.611111111111114)"/><use xlink:href="#v" transform="matrix(1,0,0,1,125,547) translate(6.882716049382715 45.277777777777786)"/><use xlink:href="#l" transform="matrix(1,0,0,1,125,547) translate(33.919753086419746 45.277777777777786)"/></g><defs><path d="M24-248c93 1 206-16 204 79-1 75-69 88-152 82V0H24v-248zm52 121c47 0 100 7 100-41 0-47-54-39-100-39v80" id="w"/><path d="M135-150c-39-12-60 13-60 57V0H25l-1-190h47c2 13-1 29 3 40 6-28 27-53 61-41v41" id="x"/><path d="M110-194c64 0 96 36 96 99 0 64-35 99-97 99-61 0-95-36-95-99 0-62 34-99 96-99zm-1 164c35 0 45-28 45-65 0-40-10-65-43-65-34 0-45 26-45 65 0 36 10 65 43 65" id="y"/><path d="M25-224v-37h50v37H25zM75 22c2 45-34 59-81 51V38c22 5 31-5 31-27v-201h50V22" id="z"/><path d="M185-48c-13 30-37 53-82 52C43 2 14-33 14-96s30-98 90-98c62 0 83 45 84 108H66c0 31 8 55 39 56 18 0 30-7 34-22zm-45-69c5-46-57-63-70-21-2 6-4 13-4 21h74" id="A"/><path d="M190-63c-7 42-38 67-86 67-59 0-84-38-90-98-12-110 154-137 174-36l-49 2c-2-19-15-32-35-32-30 0-35 28-38 64-6 74 65 87 74 30" id="B"/><path d="M115-3C79 11 28 4 28-45v-112H4v-33h27l15-45h31v45h36v33H77v99c-1 23 16 31 38 25v30" id="C"/><g id="b"><use transform="matrix(0.06172839506172839,0,0,0.06172839506172839,0,0)" xlink:href="#w"/><use transform="matrix(0.06172839506172839,0,0,0.06172839506172839,14.814814814814813,0)" xlink:href="#x"/><use transform="matrix(0.06172839506172839,0,0,0.06172839506172839,23.456790123456788,0)" xlink:href="#y"/><use transform="matrix(0.06172839506172839,0,0,0.06172839506172839,36.9753086419753,0)" xlink:href="#z"/><use transform="matrix(0.06172839506172839,0,0,0.06172839506172839,43.148148148148145,0)" xlink:href="#A"/><use transform="matrix(0.06172839506172839,0,0,0.06172839506172839,55.49382716049382,0)" xlink:href="#B"/><use transform="matrix(0.06172839506172839,0,0,0.06172839506172839,67.8395061728395,0)" xlink:href="#C"/></g><path d="M137-138c1-29-70-34-71-4 15 46 118 7 119 86 1 83-164 76-172 9l43-7c4 19 20 25 44 25 33 8 57-30 24-41C81-84 22-81 20-136c-2-80 154-74 161-7" id="D"/><path d="M85 4C-2 5 27-109 22-190h50c7 57-23 150 33 157 60-5 35-97 40-157h50l1 190h-47c-2-12 1-28-3-38-12 25-28 42-61 42" id="E"/><path d="M135-194c52 0 70 43 70 98 0 56-19 99-73 100-30 1-46-15-58-35L72 0H24l1-261h50v104c11-23 29-37 60-37zM114-30c31 0 40-27 40-66 0-37-7-63-39-63s-41 28-41 65c0 36 8 64 40 64" id="F"/><g id="c"><use transform="matrix(0.06172839506172839,0,0,0.06172839506172839,0,0)" xlink:href="#D"/><use transform="matrix(0.06172839506172839,0,0,0.06172839506172839,12.345679012345679,0)" xlink:href="#E"/><use transform="matrix(0.06172839506172839,0,0,0.06172839506172839,25.864197530864196,0)" xlink:href="#F"/><use transform="matrix(0.06172839506172839,0,0,0.06172839506172839,39.382716049382715,0)" xlink:href="#z"/><use transform="matrix(0.06172839506172839,0,0,0.06172839506172839,45.55555555555556,0)" xlink:href="#A"/><use transform="matrix(0.06172839506172839,0,0,0.06172839506172839,57.901234567901234,0)" xlink:href="#B"/><use transform="matrix(0.06172839506172839,0,0,0.06172839506172839,70.24691358024691,0)" xlink:href="#C"/></g><path d="M169-182c-1-43-94-46-97-3 18 66 151 10 154 114 3 95-165 93-204 36-6-8-10-19-12-30l50-8c3 46 112 56 116 5-17-69-150-10-154-114-4-87 153-88 188-35 5 8 8 18 10 28" id="G"/><path d="M101-251c68 0 84 54 84 127C185-50 166 4 99 4S15-52 14-124c-1-75 17-127 87-127zm-1 216c37-5 36-46 36-89s4-89-36-89c-39 0-36 45-36 89 0 43-3 85 36 89" id="H"/><path d="M23 0v-37h61v-169l-59 37v-38l62-41h46v211h57V0H23" id="I"/><g id="e"><use transform="matrix(0.06172839506172839,0,0,0.06172839506172839,0,0)" xlink:href="#G"/><use transform="matrix(0.06172839506172839,0,0,0.06172839506172839,14.814814814814813,0)" xlink:href="#E"/><use transform="matrix(0.06172839506172839,0,0,0.06172839506172839,28.33333333333333,0)" xlink:href="#F"/><use transform="matrix(0.06172839506172839,0,0,0.06172839506172839,41.85185185185185,0)" xlink:href="#H"/><use transform="matrix(0.06172839506172839,0,0,0.06172839506172839,54.197530864197525,0)" xlink:href="#I"/></g><path d="M25-224v-37h50v37H25zM25 0v-190h50V0H25" id="J"/><path d="M88-194c31-1 46 15 58 34l-1-101h50l1 261h-48c-2-10 0-23-3-31C134-8 116 4 84 4 32 4 16-41 15-95c0-56 19-97 73-99zm17 164c33 0 40-30 41-66 1-37-9-64-41-64s-38 30-39 65c0 43 13 65 39 65" id="K"/><path d="M135-194c87-1 58 113 63 194h-50c-7-57 23-157-34-157-59 0-34 97-39 157H25l-1-190h47c2 12-1 28 3 38 12-26 28-41 61-42" id="L"/><path d="M121-226c-27-7-43 5-38 36h38v33H83V0H34v-157H6v-33h28c-9-59 32-81 87-68v32" id="M"/><g id="f"><use transform="matrix(0.06172839506172839,0,0,0.06172839506172839,0,0)" xlink:href="#J"/><use transform="matrix(0.06172839506172839,0,0,0.06172839506172839,6.172839506172839,0)" xlink:href="#K"/><use transform="matrix(0.06172839506172839,0,0,0.06172839506172839,19.691358024691358,0)" xlink:href="#A"/><use transform="matrix(0.06172839506172839,0,0,0.06172839506172839,32.03703703703704,0)" xlink:href="#L"/><use transform="matrix(0.06172839506172839,0,0,0.06172839506172839,45.55555555555556,0)" xlink:href="#C"/><use transform="matrix(0.06172839506172839,0,0,0.06172839506172839,52.901234567901234,0)" xlink:href="#J"/><use transform="matrix(0.06172839506172839,0,0,0.06172839506172839,59.074074074074076,0)" xlink:href="#M"/><use transform="matrix(0.06172839506172839,0,0,0.06172839506172839,66.41975308641976,0)" xlink:href="#J"/><use transform="matrix(0.06172839506172839,0,0,0.06172839506172839,72.5925925925926,0)" xlink:href="#A"/><use transform="matrix(0.06172839506172839,0,0,0.06172839506172839,84.93827160493828,0)" xlink:href="#x"/></g><path d="M142-158h-39l-4-90h48zm-75 0H28l-4-90h48" id="N"/><g id="g"><use transform="matrix(0.06172839506172839,0,0,0.06172839506172839,0,0)" xlink:href="#N"/><use transform="matrix(0.06172839506172839,0,0,0.06172839506172839,10.493827160493826,0)" xlink:href="#D"/><use transform="matrix(0.06172839506172839,0,0,0.06172839506172839,22.839506172839506,0)" xlink:href="#E"/><use transform="matrix(0.06172839506172839,0,0,0.06172839506172839,36.358024691358025,0)" xlink:href="#F"/><use transform="matrix(0.06172839506172839,0,0,0.06172839506172839,49.876543209876544,0)" xlink:href="#H"/><use transform="matrix(0.06172839506172839,0,0,0.06172839506172839,62.22222222222222,0)" xlink:href="#I"/><use transform="matrix(0.06172839506172839,0,0,0.06172839506172839,74.5679012345679,0)" xlink:href="#N"/></g><path d="M133-34C117-15 103 5 69 4 32 3 11-16 11-54c-1-60 55-63 116-61 1-26-3-47-28-47-18 1-26 9-28 27l-52-2c7-38 36-58 82-57s74 22 75 68l1 82c-1 14 12 18 25 15v27c-30 8-71 5-69-32zm-48 3c29 0 43-24 42-57-32 0-66-3-65 30 0 17 8 27 23 27" id="O"/><path d="M195-6C206 82 75 100 31 46c-4-6-6-13-8-21l49-6c3 16 16 24 34 25 40 0 42-37 40-79-11 22-30 35-61 35-53 0-70-43-70-97 0-56 18-96 73-97 30 0 46 14 59 34l2-30h47zm-90-29c32 0 41-27 41-63 0-35-9-62-40-62-32 0-39 29-40 63 0 36 9 62 39 62" id="P"/><g id="h"><use transform="matrix(0.06172839506172839,0,0,0.06172839506172839,0,0)" xlink:href="#O"/><use transform="matrix(0.06172839506172839,0,0,0.06172839506172839,12.345679012345679,0)" xlink:href="#P"/><use transform="matrix(0.06172839506172839,0,0,0.06172839506172839,25.864197530864196,0)" xlink:href="#A"/></g><path d="M182-182c0 78-84 86-111 141h115V0H12c-6-101 99-100 120-180 1-22-12-31-33-32-23 0-32 14-35 34l-49-3c5-45 32-70 84-70 51 0 83 22 83 69" id="Q"/><path d="M139-81c0-46-55-55-73-27H18l9-140h149v37H72l-4 63c44-38 133-4 122 66C201 21 21 35 11-62l49-4c5 18 15 30 39 30 26 0 40-18 40-45" id="R"/><path d="M24 0v-54h51V0H24" id="S"/><path d="M52 0c1-96 47-148 87-207H15v-41h169v40c-36 62-79 113-81 208H52" id="T"/><g id="i"><use transform="matrix(0.07407407407407408,0,0,0.07407407407407408,0,0)" xlink:href="#Q"/><use transform="matrix(0.07407407407407408,0,0,0.07407407407407408,14.814814814814817,0)" xlink:href="#R"/><use transform="matrix(0.07407407407407408,0,0,0.07407407407407408,29.629629629629633,0)" xlink:href="#S"/><use transform="matrix(0.07407407407407408,0,0,0.07407407407407408,37.03703703703704,0)" xlink:href="#T"/></g><path d="M123 10C108 53 80 86 19 72V37c35 8 53-11 59-39L3-190h52l48 148c12-52 28-100 44-148h51" id="U"/><g id="j"><use transform="matrix(0.06172839506172839,0,0,0.06172839506172839,0,0)" xlink:href="#B"/><use transform="matrix(0.06172839506172839,0,0,0.06172839506172839,12.345679012345679,0)" xlink:href="#J"/><use transform="matrix(0.06172839506172839,0,0,0.06172839506172839,18.51851851851852,0)" xlink:href="#C"/><use transform="matrix(0.06172839506172839,0,0,0.06172839506172839,25.864197530864196,0)" xlink:href="#U"/></g><g id="k"><use transform="matrix(0.06172839506172839,0,0,0.06172839506172839,0,0)" xlink:href="#y"/><use transform="matrix(0.06172839506172839,0,0,0.06172839506172839,13.518518518518517,0)" xlink:href="#M"/></g><path d="M114-157C55-157 80-60 75 0H25v-261h50l-1 109c12-26 28-41 61-42 86-1 58 113 63 194h-50c-7-57 23-157-34-157" id="V"/><g id="l"><use transform="matrix(0.06172839506172839,0,0,0.06172839506172839,0,0)" xlink:href="#F"/><use transform="matrix(0.06172839506172839,0,0,0.06172839506172839,13.518518518518517,0)" xlink:href="#J"/><use transform="matrix(0.06172839506172839,0,0,0.06172839506172839,19.691358024691358,0)" xlink:href="#x"/><use transform="matrix(0.06172839506172839,0,0,0.06172839506172839,28.333333333333332,0)" xlink:href="#C"/><use transform="matrix(0.06172839506172839,0,0,0.06172839506172839,35.67901234567901,0)" xlink:href="#V"/></g><path d="M176-78C186 10 51 31 16-35c-5-9-9-19-11-32l52-8c4 21 12 37 35 38 23 0 32-16 32-40v-130H75v-41h101v170" id="W"/><path d="M135-194c53 0 70 44 70 98 0 56-19 98-73 100-31 1-45-17-59-34 3 33 2 69 2 105H25l-1-265h48c2 10 0 23 3 31 11-24 29-35 60-35zM114-30c33 0 39-31 40-66 0-38-9-64-40-64-56 0-55 130 0 130" id="X"/><g id="m"><use transform="matrix(0.06172839506172839,0,0,0.06172839506172839,0,0)" xlink:href="#W"/><use transform="matrix(0.06172839506172839,0,0,0.06172839506172839,12.345679012345679,0)" xlink:href="#O"/><use transform="matrix(0.06172839506172839,0,0,0.06172839506172839,24.691358024691358,0)" xlink:href="#X"/><use transform="matrix(0.06172839506172839,0,0,0.06172839506172839,38.20987654320987,0)" xlink:href="#O"/><use transform="matrix(0.06172839506172839,0,0,0.06172839506172839,50.55555555555555,0)" xlink:href="#L"/></g><g id="n"><use transform="matrix(0.06172839506172839,0,0,0.06172839506172839,0,0)" xlink:href="#B"/><use transform="matrix(0.06172839506172839,0,0,0.06172839506172839,12.345679012345679,0)" xlink:href="#J"/><use transform="matrix(0.06172839506172839,0,0,0.06172839506172839,18.51851851851852,0)" xlink:href="#C"/><use transform="matrix(0.06172839506172839,0,0,0.06172839506172839,25.864197530864196,0)" xlink:href="#U"/></g><path d="M136-208V0H84v-208H4v-40h212v40h-80" id="Y"/><path d="M147 0L96-86 75-71V0H25v-261h50v150l67-79h53l-66 74L201 0h-54" id="Z"/><g id="o"><use transform="matrix(0.06172839506172839,0,0,0.06172839506172839,0,0)" xlink:href="#Y"/><use transform="matrix(0.06172839506172839,0,0,0.06172839506172839,11.851851851851851,0)" xlink:href="#y"/><use transform="matrix(0.06172839506172839,0,0,0.06172839506172839,25.370370370370367,0)" xlink:href="#Z"/><use transform="matrix(0.06172839506172839,0,0,0.06172839506172839,37.716049382716044,0)" xlink:href="#U"/><use transform="matrix(0.06172839506172839,0,0,0.06172839506172839,50.06172839506172,0)" xlink:href="#y"/></g><path d="M25 0v-261h50V0H25" id="aa"/><g id="p"><use transform="matrix(0.06172839506172839,0,0,0.06172839506172839,0,0)" xlink:href="#aa"/><use transform="matrix(0.06172839506172839,0,0,0.06172839506172839,6.172839506172839,0)" xlink:href="#O"/><use transform="matrix(0.06172839506172839,0,0,0.06172839506172839,18.51851851851852,0)" xlink:href="#F"/><use transform="matrix(0.06172839506172839,0,0,0.06172839506172839,32.03703703703704,0)" xlink:href="#A"/><use transform="matrix(0.06172839506172839,0,0,0.06172839506172839,44.382716049382715,0)" xlink:href="#aa"/></g><g id="q"><use transform="matrix(0.06172839506172839,0,0,0.06172839506172839,0,0)" xlink:href="#N"/><use transform="matrix(0.06172839506172839,0,0,0.06172839506172839,10.493827160493826,0)" xlink:href="#Y"/><use transform="matrix(0.06172839506172839,0,0,0.06172839506172839,22.345679012345677,0)" xlink:href="#y"/><use transform="matrix(0.06172839506172839,0,0,0.06172839506172839,35.864197530864196,0)" xlink:href="#Z"/><use transform="matrix(0.06172839506172839,0,0,0.06172839506172839,48.20987654320987,0)" xlink:href="#U"/><use transform="matrix(0.06172839506172839,0,0,0.06172839506172839,60.55555555555555,0)" xlink:href="#y"/><use transform="matrix(0.06172839506172839,0,0,0.06172839506172839,74.07407407407406,0)" xlink:href="#N"/></g><use transform="matrix(0.07407407407407408,0,0,0.07407407407407408,0,0)" xlink:href="#N" id="r"/><path d="M204-68c28 30 70 52 118 65l-17 34c-48-16-88-43-120-75v88h-36v-87C116-12 78 16 33 34L15 1c45-14 87-39 116-69H55v-132h94v-20H26v-31h123v-31h36v31h127v31H185v20h98v132h-79zm-19-28h63v-25h-63v25zm-95 0h59v-25H90v25zm95-74v22h63v-22h-63zm-95 22h59v-22H90v22" id="ab"/><use transform="matrix(0.07407407407407408,0,0,0.07407407407407408,0,0)" xlink:href="#ab" id="s"/><path d="M120 6c12-1 35 7 32-9v-76H59v-111h219v111h-90c-4 53 20 119-47 119-13 0-21 0-33-2l-6-34c7 1 13 2 18 2zM24-214v-32h124v-37h35v37h130v32H24zm70 103h149v-47H94v47zm143 44c24 25 49 46 82 63l-22 31c-34-22-58-45-85-73zM17-1c31-17 57-42 79-67l26 20C100-20 71 8 38 28" id="ac"/><g id="t"><use transform="matrix(0.07407407407407408,0,0,0.07407407407407408,0,0)" xlink:href="#ac"/><use transform="matrix(0.07407407407407408,0,0,0.07407407407407408,25.03703703703704,0)" xlink:href="#N"/></g><g id="u"><use transform="matrix(0.06172839506172839,0,0,0.06172839506172839,0,0)" xlink:href="#B"/><use transform="matrix(0.06172839506172839,0,0,0.06172839506172839,12.345679012345679,0)" xlink:href="#y"/><use transform="matrix(0.06172839506172839,0,0,0.06172839506172839,25.864197530864196,0)" xlink:href="#E"/><use transform="matrix(0.06172839506172839,0,0,0.06172839506172839,39.382716049382715,0)" xlink:href="#L"/><use transform="matrix(0.06172839506172839,0,0,0.06172839506172839,52.901234567901234,0)" xlink:href="#C"/><use transform="matrix(0.06172839506172839,0,0,0.06172839506172839,60.24691358024691,0)" xlink:href="#x"/><use transform="matrix(0.06172839506172839,0,0,0.06172839506172839,68.88888888888889,0)" xlink:href="#U"/></g><g id="v"><use transform="matrix(0.06172839506172839,0,0,0.06172839506172839,0,0)" xlink:href="#y"/><use transform="matrix(0.06172839506172839,0,0,0.06172839506172839,13.518518518518517,0)" xlink:href="#M"/></g></defs></g></svg>