<svg xmlns="http://www.w3.org/2000/svg" xmlns:xlink="http://www.w3.org/1999/xlink" width="740" height="500"><g transform="translate(-60 -100)"><path d="M0 0h1360v1760H0z" fill="#fff"/><path d="M180 170c0 27.6-22.4 50-50 50s-50-22.4-50-50 22.4-50 50-50 50 22.4 50 50z" stroke="#498a44" stroke-width="6" fill="#a3d977"/><use xlink:href="#a" transform="matrix(1,0,0,1,85,125) translate(45 50.4)"/><path d="M500 170c0 27.6-22.4 50-50 50s-50-22.4-50-50 22.4-50 50-50 50 22.4 50 50z" stroke="#9b0d28" stroke-width="6" fill="#ff8f80"/><use xlink:href="#b" transform="matrix(1,0,0,1,405,125) translate(45 50.4)"/><path d="M180 170h218.75" stroke="#000" stroke-width="8" fill="none"/><path d="M180 174h-.2l.2-4-.13-3.6-.05-.4h.18zM398.75 170l-14.27 4.64v-9.28z"/><path d="M400.2 166.26L400 170l.13 3.6.02.15-19.67 6.4v-20.3z"/><path d="M85 147.5h90v45H85z" fill="none"/><use xlink:href="#c" transform="matrix(1,0,0,1,90,152.5) translate(-0.030864197530867443 21.944444444444443)"/><path d="M240 120h100v65H240z" fill="none"/><use xlink:href="#d" transform="matrix(1,0,0,1,245,125) translate(-4.938271604938279 31.944444444444443)"/><path d="M405 148h90v45h-90z" fill="none"/><use xlink:href="#e" transform="matrix(1,0,0,1,410,153) translate(5.493827160493829 21.944444444444443)"/><path d="M180 290c0 27.6-22.4 50-50 50s-50-22.4-50-50 22.4-50 50-50 50 22.4 50 50z" stroke="#498a44" stroke-width="6" fill="#a3d977"/><use xlink:href="#a" transform="matrix(1,0,0,1,85,245) translate(45 50.4)"/><path d="M500 290c0 27.6-22.4 50-50 50s-50-22.4-50-50 22.4-50 50-50 50 22.4 50 50z" stroke="#9b0d28" stroke-width="6" fill="#ff8f80"/><use xlink:href="#b" transform="matrix(1,0,0,1,405,245) translate(45 50.4)"/><path d="M180 290h218.75" stroke="#000" stroke-width="8" fill="none"/><path d="M180 294h-.2l.2-4-.13-3.6-.05-.4h.18zM398.75 290l-14.27 4.64v-9.28z"/><path d="M400.2 286.26L400 290l.13 3.6.02.15-19.67 6.4v-20.3z"/><path d="M85 258.33h90v63.34H85z" fill="none"/><use xlink:href="#f" transform="matrix(1,0,0,1,90,263.3333333333333) translate(7.962962962962969 31.444444444444443)"/><path d="M240 240h100v65H240z" fill="none"/><use xlink:href="#g" transform="matrix(1,0,0,1,245,245) translate(25.895061728395063 31.944444444444443)"/><path d="M405 268h90v45h-90z" fill="none"/><use xlink:href="#h" transform="matrix(1,0,0,1,410,273) translate(8.20987654320988 21.944444444444443)"/><path d="M180 410c0 27.6-22.4 50-50 50s-50-22.4-50-50 22.4-50 50-50 50 22.4 50 50z" stroke="#498a44" stroke-width="6" fill="#a3d977"/><use xlink:href="#a" transform="matrix(1,0,0,1,85,365) translate(45 50.4)"/><path d="M500 410c0 27.6-22.4 50-50 50s-50-22.4-50-50 22.4-50 50-50 50 22.4 50 50z" stroke="#9b0d28" stroke-width="6" fill="#ff8f80"/><use xlink:href="#b" transform="matrix(1,0,0,1,405,365) translate(45 50.4)"/><path d="M180 410h218.75" stroke="#000" stroke-width="8" fill="none"/><path d="M180 414h-.2l.2-4-.13-3.6-.05-.4h.18zM398.75 410l-14.27 4.64v-9.28z"/><path d="M400.2 406.26L400 410l.13 3.6.02.15-19.67 6.4v-20.3z"/><path d="M85 387.5h90v45H85z" fill="none"/><use xlink:href="#h" transform="matrix(1,0,0,1,90,392.5) translate(8.20987654320988 21.944444444444443)"/><path d="M240 360h100v65H240z" fill="none"/><use xlink:href="#i" transform="matrix(1,0,0,1,245,365) translate(19.72222222222222 31.944444444444443)"/><path d="M405 388h90v45h-90z" fill="none"/><use xlink:href="#j" transform="matrix(1,0,0,1,410,393) translate(-2.283950617283942 21.944444444444443)"/><path d="M180 530c0 27.6-22.4 50-50 50s-50-22.4-50-50 22.4-50 50-50 50 22.4 50 50z" stroke="#498a44" stroke-width="6" fill="#a3d977"/><use xlink:href="#a" transform="matrix(1,0,0,1,85,485) translate(45 50.4)"/><path d="M500 530c0 27.6-22.4 50-50 50s-50-22.4-50-50 22.4-50 50-50 50 22.4 50 50z" stroke="#9b0d28" stroke-width="6" fill="#ff8f80"/><use xlink:href="#b" transform="matrix(1,0,0,1,405,485) translate(45 50.4)"/><path d="M180 530h218.75" stroke="#000" stroke-width="8" fill="none"/><path d="M180 534h-.2l.2-4-.13-3.6-.05-.4h.18zM398.75 530l-14.27 4.64v-9.28z"/><path d="M400.2 526.26L400 530l.13 3.6.02.15-19.67 6.4v-20.3z"/><path d="M85 507.5h90v45H85z" fill="none"/><use xlink:href="#h" transform="matrix(1,0,0,1,90,512.5) translate(8.20987654320988 21.944444444444443)"/><path d="M240 480h100v65H240z" fill="none"/><use xlink:href="#i" transform="matrix(1,0,0,1,245,485) translate(19.72222222222222 31.944444444444443)"/><path d="M405 485.5h90v90h-90z" fill="none"/><use xlink:href="#k" transform="matrix(1,0,0,1,410,490.5) translate(2.6851851851851904 46.27777777777778)"/><use xlink:href="#l" transform="matrix(1,0,0,1,410,490.5) translate(12.876543209876548 46.27777777777778)"/><use xlink:href="#m" transform="matrix(1,0,0,1,410,490.5) translate(40 46.27777777777778)"/><path d="M520 140.25h200v61.5H520z" fill="none"/><use xlink:href="#n" transform="matrix(1,0,0,1,525,145.25) translate(0 30.444444444444443)"/><use xlink:href="#o" transform="matrix(1,0,0,1,525,145.25) translate(65.30864197530863 30.444444444444443)"/><path d="M520 259.25h200v61.5H520z" fill="none"/><use xlink:href="#p" transform="matrix(1,0,0,1,525,264.25) translate(0 30.444444444444443)"/><use xlink:href="#q" transform="matrix(1,0,0,1,525,264.25) translate(107.22222222222223 30.444444444444443)"/><path d="M520 377.33h260v63.34H520z" fill="none"/><g><use xlink:href="#r" transform="matrix(1,0,0,1,525,382.3333333333333) translate(0 31.444444444444443)"/><use xlink:href="#s" transform="matrix(1,0,0,1,525,382.3333333333333) translate(86.23456790123457 31.444444444444443)"/><use xlink:href="#t" transform="matrix(1,0,0,1,525,382.3333333333333) translate(158.9506172839506 31.444444444444443)"/></g><path d="M520 496.33h260V560H520z" fill="none"/><g><use xlink:href="#u" transform="matrix(1,0,0,1,525,501.3333333333333) translate(0 31.444444444444443)"/><use xlink:href="#s" transform="matrix(1,0,0,1,525,501.3333333333333) translate(107.28395061728395 31.444444444444443)"/><use xlink:href="#t" transform="matrix(1,0,0,1,525,501.3333333333333) translate(180 31.444444444444443)"/></g><defs><path d="M169-182c-1-43-94-46-97-3 18 66 151 10 154 114 3 95-165 93-204 36-6-8-10-19-12-30l50-8c3 46 112 56 116 5-17-69-150-10-154-114-4-87 153-88 188-35 5 8 8 18 10 28" id="v"/><path d="M85 4C-2 5 27-109 22-190h50c7 57-23 150 33 157 60-5 35-97 40-157h50l1 190h-47c-2-12 1-28-3-38-12 25-28 42-61 42" id="w"/><path d="M135-194c52 0 70 43 70 98 0 56-19 99-73 100-30 1-46-15-58-35L72 0H24l1-261h50v104c11-23 29-37 60-37zM114-30c31 0 40-27 40-66 0-37-7-63-39-63s-41 28-41 65c0 36 8 64 40 64" id="x"/><path d="M25-224v-37h50v37H25zM75 22c2 45-34 59-81 51V38c22 5 31-5 31-27v-201h50V22" id="y"/><path d="M185-48c-13 30-37 53-82 52C43 2 14-33 14-96s30-98 90-98c62 0 83 45 84 108H66c0 31 8 55 39 56 18 0 30-7 34-22zm-45-69c5-46-57-63-70-21-2 6-4 13-4 21h74" id="z"/><path d="M190-63c-7 42-38 67-86 67-59 0-84-38-90-98-12-110 154-137 174-36l-49 2c-2-19-15-32-35-32-30 0-35 28-38 64-6 74 65 87 74 30" id="A"/><path d="M115-3C79 11 28 4 28-45v-112H4v-33h27l15-45h31v45h36v33H77v99c-1 23 16 31 38 25v30" id="B"/><g id="c"><use transform="matrix(0.06172839506172839,0,0,0.06172839506172839,0,0)" xlink:href="#v"/><use transform="matrix(0.06172839506172839,0,0,0.06172839506172839,14.814814814814813,0)" xlink:href="#w"/><use transform="matrix(0.06172839506172839,0,0,0.06172839506172839,28.33333333333333,0)" xlink:href="#x"/><use transform="matrix(0.06172839506172839,0,0,0.06172839506172839,41.85185185185185,0)" xlink:href="#y"/><use transform="matrix(0.06172839506172839,0,0,0.06172839506172839,48.02469135802469,0)" xlink:href="#z"/><use transform="matrix(0.06172839506172839,0,0,0.06172839506172839,60.37037037037037,0)" xlink:href="#A"/><use transform="matrix(0.06172839506172839,0,0,0.06172839506172839,72.71604938271605,0)" xlink:href="#B"/></g><path d="M24-248c93 1 206-16 204 79-1 75-69 88-152 82V0H24v-248zm52 121c47 0 100 7 100-41 0-47-54-39-100-39v80" id="C"/><path d="M135-150c-39-12-60 13-60 57V0H25l-1-190h47c2 13-1 29 3 40 6-28 27-53 61-41v41" id="D"/><path d="M88-194c31-1 46 15 58 34l-1-101h50l1 261h-48c-2-10 0-23-3-31C134-8 116 4 84 4 32 4 16-41 15-95c0-56 19-97 73-99zm17 164c33 0 40-30 41-66 1-37-9-64-41-64s-38 30-39 65c0 43 13 65 39 65" id="E"/><path d="M25-224v-37h50v37H25zM25 0v-190h50V0H25" id="F"/><path d="M133-34C117-15 103 5 69 4 32 3 11-16 11-54c-1-60 55-63 116-61 1-26-3-47-28-47-18 1-26 9-28 27l-52-2c7-38 36-58 82-57s74 22 75 68l1 82c-1 14 12 18 25 15v27c-30 8-71 5-69-32zm-48 3c29 0 43-24 42-57-32 0-66-3-65 30 0 17 8 27 23 27" id="G"/><g id="d"><use transform="matrix(0.06172839506172839,0,0,0.06172839506172839,0,0)" xlink:href="#C"/><use transform="matrix(0.06172839506172839,0,0,0.06172839506172839,14.814814814814813,0)" xlink:href="#D"/><use transform="matrix(0.06172839506172839,0,0,0.06172839506172839,23.456790123456788,0)" xlink:href="#z"/><use transform="matrix(0.06172839506172839,0,0,0.06172839506172839,35.80246913580247,0)" xlink:href="#E"/><use transform="matrix(0.06172839506172839,0,0,0.06172839506172839,49.32098765432099,0)" xlink:href="#F"/><use transform="matrix(0.06172839506172839,0,0,0.06172839506172839,55.49382716049383,0)" xlink:href="#A"/><use transform="matrix(0.06172839506172839,0,0,0.06172839506172839,67.8395061728395,0)" xlink:href="#G"/><use transform="matrix(0.06172839506172839,0,0,0.06172839506172839,80.18518518518519,0)" xlink:href="#B"/><use transform="matrix(0.06172839506172839,0,0,0.06172839506172839,87.53086419753087,0)" xlink:href="#z"/></g><path d="M140-251c80 0 125 45 125 126S219 4 139 4C58 4 15-44 15-125s44-126 125-126zm-1 214c52 0 73-35 73-88 0-50-21-86-72-86-52 0-73 35-73 86s22 88 72 88" id="H"/><g id="e"><use transform="matrix(0.06172839506172839,0,0,0.06172839506172839,0,0)" xlink:href="#H"/><use transform="matrix(0.06172839506172839,0,0,0.06172839506172839,17.28395061728395,0)" xlink:href="#x"/><use transform="matrix(0.06172839506172839,0,0,0.06172839506172839,30.80246913580247,0)" xlink:href="#y"/><use transform="matrix(0.06172839506172839,0,0,0.06172839506172839,36.97530864197531,0)" xlink:href="#z"/><use transform="matrix(0.06172839506172839,0,0,0.06172839506172839,49.32098765432099,0)" xlink:href="#A"/><use transform="matrix(0.06172839506172839,0,0,0.06172839506172839,61.666666666666664,0)" xlink:href="#B"/></g><path d="M176-78C186 10 51 31 16-35c-5-9-9-19-11-32l52-8c4 21 12 37 35 38 23 0 32-16 32-40v-130H75v-41h101v170" id="I"/><path d="M135-194c53 0 70 44 70 98 0 56-19 98-73 100-31 1-45-17-59-34 3 33 2 69 2 105H25l-1-265h48c2 10 0 23 3 31 11-24 29-35 60-35zM114-30c33 0 39-31 40-66 0-38-9-64-40-64-56 0-55 130 0 130" id="J"/><path d="M135-194c87-1 58 113 63 194h-50c-7-57 23-157-34-157-59 0-34 97-39 157H25l-1-190h47c2 12-1 28 3 38 12-26 28-41 61-42" id="K"/><g id="f"><use transform="matrix(0.06172839506172839,0,0,0.06172839506172839,0,0)" xlink:href="#I"/><use transform="matrix(0.06172839506172839,0,0,0.06172839506172839,12.345679012345679,0)" xlink:href="#G"/><use transform="matrix(0.06172839506172839,0,0,0.06172839506172839,24.691358024691358,0)" xlink:href="#J"/><use transform="matrix(0.06172839506172839,0,0,0.06172839506172839,38.20987654320987,0)" xlink:href="#G"/><use transform="matrix(0.06172839506172839,0,0,0.06172839506172839,50.55555555555555,0)" xlink:href="#K"/></g><path d="M123 10C108 53 80 86 19 72V37c35 8 53-11 59-39L3-190h52l48 148c12-52 28-100 44-148h51" id="L"/><g id="g"><use transform="matrix(0.06172839506172839,0,0,0.06172839506172839,0,0)" xlink:href="#A"/><use transform="matrix(0.06172839506172839,0,0,0.06172839506172839,12.345679012345679,0)" xlink:href="#F"/><use transform="matrix(0.06172839506172839,0,0,0.06172839506172839,18.51851851851852,0)" xlink:href="#B"/><use transform="matrix(0.06172839506172839,0,0,0.06172839506172839,25.864197530864196,0)" xlink:href="#L"/></g><path d="M136-208V0H84v-208H4v-40h212v40h-80" id="M"/><path d="M110-194c64 0 96 36 96 99 0 64-35 99-97 99-61 0-95-36-95-99 0-62 34-99 96-99zm-1 164c35 0 45-28 45-65 0-40-10-65-43-65-34 0-45 26-45 65 0 36 10 65 43 65" id="N"/><path d="M147 0L96-86 75-71V0H25v-261h50v150l67-79h53l-66 74L201 0h-54" id="O"/><g id="h"><use transform="matrix(0.06172839506172839,0,0,0.06172839506172839,0,0)" xlink:href="#M"/><use transform="matrix(0.06172839506172839,0,0,0.06172839506172839,11.851851851851851,0)" xlink:href="#N"/><use transform="matrix(0.06172839506172839,0,0,0.06172839506172839,25.370370370370367,0)" xlink:href="#O"/><use transform="matrix(0.06172839506172839,0,0,0.06172839506172839,37.716049382716044,0)" xlink:href="#L"/><use transform="matrix(0.06172839506172839,0,0,0.06172839506172839,50.06172839506172,0)" xlink:href="#N"/></g><path d="M25 0v-261h50V0H25" id="P"/><g id="i"><use transform="matrix(0.06172839506172839,0,0,0.06172839506172839,0,0)" xlink:href="#P"/><use transform="matrix(0.06172839506172839,0,0,0.06172839506172839,6.172839506172839,0)" xlink:href="#G"/><use transform="matrix(0.06172839506172839,0,0,0.06172839506172839,18.51851851851852,0)" xlink:href="#x"/><use transform="matrix(0.06172839506172839,0,0,0.06172839506172839,32.03703703703704,0)" xlink:href="#z"/><use transform="matrix(0.06172839506172839,0,0,0.06172839506172839,44.382716049382715,0)" xlink:href="#P"/></g><path d="M142-158h-39l-4-90h48zm-75 0H28l-4-90h48" id="Q"/><g id="j"><use transform="matrix(0.06172839506172839,0,0,0.06172839506172839,0,0)" xlink:href="#Q"/><use transform="matrix(0.06172839506172839,0,0,0.06172839506172839,10.493827160493826,0)" xlink:href="#M"/><use transform="matrix(0.06172839506172839,0,0,0.06172839506172839,22.345679012345677,0)" xlink:href="#N"/><use transform="matrix(0.06172839506172839,0,0,0.06172839506172839,35.864197530864196,0)" xlink:href="#O"/><use transform="matrix(0.06172839506172839,0,0,0.06172839506172839,48.20987654320987,0)" xlink:href="#L"/><use transform="matrix(0.06172839506172839,0,0,0.06172839506172839,60.55555555555555,0)" xlink:href="#N"/><use transform="matrix(0.06172839506172839,0,0,0.06172839506172839,74.07407407407406,0)" xlink:href="#Q"/></g><path d="M109-170H84l-4-78h32zm-65 0H19l-4-78h33" id="R"/><use transform="matrix(0.08024691358024691,0,0,0.08024691358024691,0,0)" xlink:href="#R" id="k"/><path d="M190-72c31 35 77 62 128 79l-12 21c-49-20-95-47-127-83v97h-23v-97C122-20 78 10 31 31L20 10c49-18 91-46 122-82H62v-124h94v-29H27v-20h129v-35h23v35h133v20H179v29h98v124h-87zm-11-18h75v-36h-75v36zm-95 0h72v-36H84v36zm95-86v32h75v-32h-75zm-95 32h72v-32H84v32" id="S"/><use transform="matrix(0.08024691358024691,0,0,0.08024691358024691,0,0)" xlink:href="#S" id="l"/><path d="M111 14c19 2 49 11 49-9v-94H70v-97h202v97h-90V9c5 38-37 28-67 27zM93-108h156v-58H93v58zM31-217v-20h127v-43h22v43h130v20H31zM25 12C54-9 80-36 99-67l18 12C99-25 68 8 38 29zm210-78c24 29 46 52 77 73l-13 19c-31-23-56-49-80-80" id="T"/><g id="m"><use transform="matrix(0.08024691358024691,0,0,0.08024691358024691,0,0)" xlink:href="#T"/><use transform="matrix(0.08024691358024691,0,0,0.08024691358024691,27.123456790123456,0)" xlink:href="#R"/></g><g id="n"><use transform="matrix(0.06172839506172839,0,0,0.06172839506172839,0,0)" xlink:href="#M"/><use transform="matrix(0.06172839506172839,0,0,0.06172839506172839,12.28395061728395,0)" xlink:href="#D"/><use transform="matrix(0.06172839506172839,0,0,0.06172839506172839,20.925925925925924,0)" xlink:href="#F"/><use transform="matrix(0.06172839506172839,0,0,0.06172839506172839,27.098765432098762,0)" xlink:href="#J"/><use transform="matrix(0.06172839506172839,0,0,0.06172839506172839,40.61728395061728,0)" xlink:href="#P"/><use transform="matrix(0.06172839506172839,0,0,0.06172839506172839,46.79012345679012,0)" xlink:href="#z"/></g><path d="M220-157c-53 9-28 100-34 157h-49v-107c1-27-5-49-29-50C55-147 81-57 75 0H25l-1-190h47c2 12-1 28 3 38 10-53 101-56 108 0 13-22 24-43 59-42 82 1 51 116 57 194h-49v-107c-1-25-5-48-29-50" id="U"/><path d="M137-138c1-29-70-34-71-4 15 46 118 7 119 86 1 83-164 76-172 9l43-7c4 19 20 25 44 25 33 8 57-30 24-41C81-84 22-81 20-136c-2-80 154-74 161-7" id="V"/><g id="o"><use transform="matrix(0.06172839506172839,0,0,0.06172839506172839,0,0)" xlink:href="#v"/><use transform="matrix(0.06172839506172839,0,0,0.06172839506172839,14.814814814814813,0)" xlink:href="#B"/><use transform="matrix(0.06172839506172839,0,0,0.06172839506172839,22.160493827160494,0)" xlink:href="#G"/><use transform="matrix(0.06172839506172839,0,0,0.06172839506172839,34.50617283950617,0)" xlink:href="#B"/><use transform="matrix(0.06172839506172839,0,0,0.06172839506172839,41.85185185185185,0)" xlink:href="#z"/><use transform="matrix(0.06172839506172839,0,0,0.06172839506172839,54.197530864197525,0)" xlink:href="#U"/><use transform="matrix(0.06172839506172839,0,0,0.06172839506172839,73.9506172839506,0)" xlink:href="#z"/><use transform="matrix(0.06172839506172839,0,0,0.06172839506172839,86.29629629629629,0)" xlink:href="#K"/><use transform="matrix(0.06172839506172839,0,0,0.06172839506172839,99.81481481481481,0)" xlink:href="#B"/><use transform="matrix(0.06172839506172839,0,0,0.06172839506172839,107.1604938271605,0)" xlink:href="#V"/></g><path d="M240-174c0 40-23 61-54 70L253 0h-59l-57-94H76V0H24v-248c93 4 217-23 216 74zM76-134c48-2 112 12 112-38 0-48-66-32-112-35v73" id="W"/><g id="p"><use transform="matrix(0.06172839506172839,0,0,0.06172839506172839,0,0)" xlink:href="#W"/><use transform="matrix(0.06172839506172839,0,0,0.06172839506172839,15.987654320987653,0)" xlink:href="#z"/><use transform="matrix(0.06172839506172839,0,0,0.06172839506172839,28.333333333333332,0)" xlink:href="#V"/><use transform="matrix(0.06172839506172839,0,0,0.06172839506172839,40.67901234567901,0)" xlink:href="#N"/><use transform="matrix(0.06172839506172839,0,0,0.06172839506172839,54.19753086419753,0)" xlink:href="#w"/><use transform="matrix(0.06172839506172839,0,0,0.06172839506172839,67.71604938271605,0)" xlink:href="#D"/><use transform="matrix(0.06172839506172839,0,0,0.06172839506172839,76.35802469135803,0)" xlink:href="#A"/><use transform="matrix(0.06172839506172839,0,0,0.06172839506172839,88.70370370370371,0)" xlink:href="#z"/></g><path d="M175 0L67-191c6 58 2 128 3 191H24v-248h59L193-55c-6-58-2-129-3-193h46V0h-61" id="X"/><g id="q"><use transform="matrix(0.06172839506172839,0,0,0.06172839506172839,0,0)" xlink:href="#X"/><use transform="matrix(0.06172839506172839,0,0,0.06172839506172839,15.987654320987653,0)" xlink:href="#N"/><use transform="matrix(0.06172839506172839,0,0,0.06172839506172839,29.50617283950617,0)" xlink:href="#E"/><use transform="matrix(0.06172839506172839,0,0,0.06172839506172839,43.02469135802469,0)" xlink:href="#z"/></g><path d="M24 0v-248h195v40H76v63h132v40H76v65h150V0H24" id="Y"/><path d="M195-6C206 82 75 100 31 46c-4-6-6-13-8-21l49-6c3 16 16 24 34 25 40 0 42-37 40-79-11 22-30 35-61 35-53 0-70-43-70-97 0-56 18-96 73-97 30 0 46 14 59 34l2-30h47zm-90-29c32 0 41-27 41-63 0-35-9-62-40-62-32 0-39 29-40 63 0 36 9 62 39 62" id="Z"/><path d="M114-157C55-157 80-60 75 0H25v-261h50l-1 109c12-26 28-41 61-42 86-1 58 113 63 194h-50c-7-57 23-157-34-157" id="aa"/><g id="r"><use transform="matrix(0.06172839506172839,0,0,0.06172839506172839,0,0)" xlink:href="#Y"/><use transform="matrix(0.06172839506172839,0,0,0.06172839506172839,14.814814814814813,0)" xlink:href="#K"/><use transform="matrix(0.06172839506172839,0,0,0.06172839506172839,28.33333333333333,0)" xlink:href="#Z"/><use transform="matrix(0.06172839506172839,0,0,0.06172839506172839,41.85185185185185,0)" xlink:href="#P"/><use transform="matrix(0.06172839506172839,0,0,0.06172839506172839,48.02469135802469,0)" xlink:href="#F"/><use transform="matrix(0.06172839506172839,0,0,0.06172839506172839,54.19753086419753,0)" xlink:href="#V"/><use transform="matrix(0.06172839506172839,0,0,0.06172839506172839,66.54320987654322,0)" xlink:href="#aa"/></g><path d="M24 0v-248h52v208h133V0H24" id="ab"/><g id="s"><use transform="matrix(0.06172839506172839,0,0,0.06172839506172839,0,0)" xlink:href="#ab"/><use transform="matrix(0.06172839506172839,0,0,0.06172839506172839,13.518518518518517,0)" xlink:href="#F"/><use transform="matrix(0.06172839506172839,0,0,0.06172839506172839,19.691358024691358,0)" xlink:href="#B"/><use transform="matrix(0.06172839506172839,0,0,0.06172839506172839,27.037037037037038,0)" xlink:href="#z"/><use transform="matrix(0.06172839506172839,0,0,0.06172839506172839,39.382716049382715,0)" xlink:href="#D"/><use transform="matrix(0.06172839506172839,0,0,0.06172839506172839,48.02469135802469,0)" xlink:href="#G"/><use transform="matrix(0.06172839506172839,0,0,0.06172839506172839,60.37037037037037,0)" xlink:href="#P"/></g><g id="t"><use transform="matrix(0.06172839506172839,0,0,0.06172839506172839,0,0)" xlink:href="#X"/><use transform="matrix(0.06172839506172839,0,0,0.06172839506172839,15.987654320987653,0)" xlink:href="#N"/><use transform="matrix(0.06172839506172839,0,0,0.06172839506172839,29.50617283950617,0)" xlink:href="#E"/><use transform="matrix(0.06172839506172839,0,0,0.06172839506172839,43.02469135802469,0)" xlink:href="#z"/></g><g id="u"><use transform="matrix(0.06172839506172839,0,0,0.06172839506172839,0,0)" xlink:href="#I"/><use transform="matrix(0.06172839506172839,0,0,0.06172839506172839,12.345679012345679,0)" xlink:href="#G"/><use transform="matrix(0.06172839506172839,0,0,0.06172839506172839,24.691358024691358,0)" xlink:href="#J"/><use transform="matrix(0.06172839506172839,0,0,0.06172839506172839,38.20987654320987,0)" xlink:href="#G"/><use transform="matrix(0.06172839506172839,0,0,0.06172839506172839,50.55555555555555,0)" xlink:href="#K"/><use transform="matrix(0.06172839506172839,0,0,0.06172839506172839,64.07407407407406,0)" xlink:href="#z"/><use transform="matrix(0.06172839506172839,0,0,0.06172839506172839,76.41975308641975,0)" xlink:href="#V"/><use transform="matrix(0.06172839506172839,0,0,0.06172839506172839,88.76543209876543,0)" xlink:href="#z"/></g></defs></g></svg>