<svg xmlns="http://www.w3.org/2000/svg" xmlns:xlink="http://www.w3.org/1999/xlink" width="475" height="417"><g transform="translate(0 1694)"><path d="M0 0h1360v1760H0z" fill="#fff"/><path d="M155-1347c0 27.6-22.4 50-50 50s-50-22.4-50-50 22.4-50 50-50 50 22.4 50 50z" stroke="#498a44" stroke-width="6" fill="#a3d977"/><use xlink:href="#a" transform="matrix(1,0,0,1,60,-1392) translate(45 50.4)"/><path d="M105-1400v-99" stroke="#000" stroke-width="8" fill="none"/><path d="M109-1397h-8v-3h8zM109.64-1484.73h-9.28L105-1499z"/><path d="M105-1502l3.2-.1 6.94 21.37H94.86l6.96-21.43z"/><path d="M60-1378.67h90v63.34H60z" fill="none"/><use xlink:href="#b" transform="matrix(1,0,0,1,65,-1373.6666666666667) translate(7.962962962962969 31.444444444444443)"/><path d="M20-1482h100v65H20z" fill="none"/><use xlink:href="#c" transform="matrix(1,0,0,1,25,-1477) translate(25.895061728395063 31.944444444444443)"/><path d="M155-1552c0 27.6-22.4 50-50 50s-50-22.4-50-50 22.4-50 50-50 50 22.4 50 50z" stroke="#498a44" stroke-width="6" fill="#a3d977"/><use xlink:href="#a" transform="matrix(1,0,0,1,60,-1597) translate(45 50.4)"/><path d="M455-1624c0 27.6-22.4 50-50 50s-50-22.4-50-50 22.4-50 50-50 50 22.4 50 50z" stroke="#e0b036" stroke-width="6" fill="#ffdf71"/><use xlink:href="#d" transform="matrix(1,0,0,1,360,-1669) translate(45 50.4)"/><path d="M155-1552l6.4-.13 6.13-.4 5.94-.6 5.8-.87 5.72-1.1 5.7-1.33 5.77-1.6 5.9-1.93 6.2-2.3 6.63-2.8 7.45-3.5 9.08-4.77 14.8-8.6 33.58-20.1 9.3-4.86 7.64-3.6 6.86-2.9 6.4-2.37 6.17-2 6.02-1.7 5.98-1.4 6.03-1.14 6.13-.92 6.3-.66 6.5-.4.32-.02" stroke="#000" stroke-width="8" fill="none"/><path d="M155.2-1548l-.4.02.2-4.02v-.15zM353.75-1624l-13.8 5.9-.83-9.23z"/><path d="M355.2-1627.77l-.2 3.77.13 3.6.02.15-18.68 8-1.83-20.2z"/><path d="M60-1574.5h90v45H60z" fill="none"/><use xlink:href="#e" transform="matrix(1,0,0,1,65,-1569.5) translate(8.20987654320988 21.944444444444443)"/><path d="M205-1655.5h100v65H205z" fill="none"/><use xlink:href="#f" transform="matrix(1,0,0,1,210,-1650.5) translate(19.72222222222222 31.944444444444443)"/><path d="M360-1646h90v45h-90z" fill="none"/><use xlink:href="#g" transform="matrix(1,0,0,1,365,-1641) translate(-2.283950617283942 21.944444444444443)"/><path d="M455-1472c0 27.6-22.4 50-50 50s-50-22.4-50-50 22.4-50 50-50 50 22.4 50 50z" stroke="#e0b036" stroke-width="6" fill="#ffdf71"/><use xlink:href="#d" transform="matrix(1,0,0,1,360,-1517) translate(45 50.4)"/><path d="M155-1552l5.42.1 5.22.34 5.07.53 4.97.74 4.9.94 4.85 1.14 4.88 1.36 4.95 1.6 5.07 1.9 5.28 2.22 5.62 2.65 6.15 3.22 7.06 4.08 8.95 5.7 48.4 33.44 6.9 4 6 3.14 5.47 2.57 5.12 2.16 4.9 1.83 4.77 1.55 4.7 1.3 4.66 1.1 4.68.9 4.73.7 4.84.5 4.96.32 5.14.1 5.1-.1" stroke="#000" stroke-width="8" fill="none"/><path d="M155.24-1556l-.25 4.26v-.26l-.13-3.6-.05-.42zM353.75-1472l-14.36 4.35.18-9.27z"/><path d="M355.2-1475.74l-.2 3.74.13 3.6.02.16-19.87 6 .4-20.27z"/><path d="M205-1498.5h100v65H205z" fill="none"/><use xlink:href="#f" transform="matrix(1,0,0,1,210,-1493.5) translate(19.72222222222222 31.944444444444443)"/><path d="M360-1512h90v90h-90z" fill="none"/><use xlink:href="#h" transform="matrix(1,0,0,1,365,-1507) translate(2.3703703703703667 45.833333333333336)"/><use xlink:href="#i" transform="matrix(1,0,0,1,365,-1507) translate(14.96296296296296 45.833333333333336)"/><use xlink:href="#j" transform="matrix(1,0,0,1,365,-1507) translate(40 45.833333333333336)"/><defs><path d="M176-78C186 10 51 31 16-35c-5-9-9-19-11-32l52-8c4 21 12 37 35 38 23 0 32-16 32-40v-130H75v-41h101v170" id="k"/><path d="M133-34C117-15 103 5 69 4 32 3 11-16 11-54c-1-60 55-63 116-61 1-26-3-47-28-47-18 1-26 9-28 27l-52-2c7-38 36-58 82-57s74 22 75 68l1 82c-1 14 12 18 25 15v27c-30 8-71 5-69-32zm-48 3c29 0 43-24 42-57-32 0-66-3-65 30 0 17 8 27 23 27" id="l"/><path d="M135-194c53 0 70 44 70 98 0 56-19 98-73 100-31 1-45-17-59-34 3 33 2 69 2 105H25l-1-265h48c2 10 0 23 3 31 11-24 29-35 60-35zM114-30c33 0 39-31 40-66 0-38-9-64-40-64-56 0-55 130 0 130" id="m"/><path d="M135-194c87-1 58 113 63 194h-50c-7-57 23-157-34-157-59 0-34 97-39 157H25l-1-190h47c2 12-1 28 3 38 12-26 28-41 61-42" id="n"/><g id="b"><use transform="matrix(0.06172839506172839,0,0,0.06172839506172839,0,0)" xlink:href="#k"/><use transform="matrix(0.06172839506172839,0,0,0.06172839506172839,12.345679012345679,0)" xlink:href="#l"/><use transform="matrix(0.06172839506172839,0,0,0.06172839506172839,24.691358024691358,0)" xlink:href="#m"/><use transform="matrix(0.06172839506172839,0,0,0.06172839506172839,38.20987654320987,0)" xlink:href="#l"/><use transform="matrix(0.06172839506172839,0,0,0.06172839506172839,50.55555555555555,0)" xlink:href="#n"/></g><path d="M190-63c-7 42-38 67-86 67-59 0-84-38-90-98-12-110 154-137 174-36l-49 2c-2-19-15-32-35-32-30 0-35 28-38 64-6 74 65 87 74 30" id="o"/><path d="M25-224v-37h50v37H25zM25 0v-190h50V0H25" id="p"/><path d="M115-3C79 11 28 4 28-45v-112H4v-33h27l15-45h31v45h36v33H77v99c-1 23 16 31 38 25v30" id="q"/><path d="M123 10C108 53 80 86 19 72V37c35 8 53-11 59-39L3-190h52l48 148c12-52 28-100 44-148h51" id="r"/><g id="c"><use transform="matrix(0.06172839506172839,0,0,0.06172839506172839,0,0)" xlink:href="#o"/><use transform="matrix(0.06172839506172839,0,0,0.06172839506172839,12.345679012345679,0)" xlink:href="#p"/><use transform="matrix(0.06172839506172839,0,0,0.06172839506172839,18.51851851851852,0)" xlink:href="#q"/><use transform="matrix(0.06172839506172839,0,0,0.06172839506172839,25.864197530864196,0)" xlink:href="#r"/></g><path d="M136-208V0H84v-208H4v-40h212v40h-80" id="s"/><path d="M110-194c64 0 96 36 96 99 0 64-35 99-97 99-61 0-95-36-95-99 0-62 34-99 96-99zm-1 164c35 0 45-28 45-65 0-40-10-65-43-65-34 0-45 26-45 65 0 36 10 65 43 65" id="t"/><path d="M147 0L96-86 75-71V0H25v-261h50v150l67-79h53l-66 74L201 0h-54" id="u"/><g id="e"><use transform="matrix(0.06172839506172839,0,0,0.06172839506172839,0,0)" xlink:href="#s"/><use transform="matrix(0.06172839506172839,0,0,0.06172839506172839,11.851851851851851,0)" xlink:href="#t"/><use transform="matrix(0.06172839506172839,0,0,0.06172839506172839,25.370370370370367,0)" xlink:href="#u"/><use transform="matrix(0.06172839506172839,0,0,0.06172839506172839,37.716049382716044,0)" xlink:href="#r"/><use transform="matrix(0.06172839506172839,0,0,0.06172839506172839,50.06172839506172,0)" xlink:href="#t"/></g><path d="M25 0v-261h50V0H25" id="v"/><path d="M135-194c52 0 70 43 70 98 0 56-19 99-73 100-30 1-46-15-58-35L72 0H24l1-261h50v104c11-23 29-37 60-37zM114-30c31 0 40-27 40-66 0-37-7-63-39-63s-41 28-41 65c0 36 8 64 40 64" id="w"/><path d="M185-48c-13 30-37 53-82 52C43 2 14-33 14-96s30-98 90-98c62 0 83 45 84 108H66c0 31 8 55 39 56 18 0 30-7 34-22zm-45-69c5-46-57-63-70-21-2 6-4 13-4 21h74" id="x"/><g id="f"><use transform="matrix(0.06172839506172839,0,0,0.06172839506172839,0,0)" xlink:href="#v"/><use transform="matrix(0.06172839506172839,0,0,0.06172839506172839,6.172839506172839,0)" xlink:href="#l"/><use transform="matrix(0.06172839506172839,0,0,0.06172839506172839,18.51851851851852,0)" xlink:href="#w"/><use transform="matrix(0.06172839506172839,0,0,0.06172839506172839,32.03703703703704,0)" xlink:href="#x"/><use transform="matrix(0.06172839506172839,0,0,0.06172839506172839,44.382716049382715,0)" xlink:href="#v"/></g><path d="M142-158h-39l-4-90h48zm-75 0H28l-4-90h48" id="y"/><g id="g"><use transform="matrix(0.06172839506172839,0,0,0.06172839506172839,0,0)" xlink:href="#y"/><use transform="matrix(0.06172839506172839,0,0,0.06172839506172839,10.493827160493826,0)" xlink:href="#s"/><use transform="matrix(0.06172839506172839,0,0,0.06172839506172839,22.345679012345677,0)" xlink:href="#t"/><use transform="matrix(0.06172839506172839,0,0,0.06172839506172839,35.864197530864196,0)" xlink:href="#u"/><use transform="matrix(0.06172839506172839,0,0,0.06172839506172839,48.20987654320987,0)" xlink:href="#r"/><use transform="matrix(0.06172839506172839,0,0,0.06172839506172839,60.55555555555555,0)" xlink:href="#t"/><use transform="matrix(0.06172839506172839,0,0,0.06172839506172839,74.07407407407406,0)" xlink:href="#y"/></g><use transform="matrix(0.07407407407407408,0,0,0.07407407407407408,0,0)" xlink:href="#y" id="h"/><path d="M204-68c28 30 70 52 118 65l-17 34c-48-16-88-43-120-75v88h-36v-87C116-12 78 16 33 34L15 1c45-14 87-39 116-69H55v-132h94v-20H26v-31h123v-31h36v31h127v31H185v20h98v132h-79zm-19-28h63v-25h-63v25zm-95 0h59v-25H90v25zm95-74v22h63v-22h-63zm-95 22h59v-22H90v22" id="z"/><use transform="matrix(0.07407407407407408,0,0,0.07407407407407408,0,0)" xlink:href="#z" id="i"/><path d="M120 6c12-1 35 7 32-9v-76H59v-111h219v111h-90c-4 53 20 119-47 119-13 0-21 0-33-2l-6-34c7 1 13 2 18 2zM24-214v-32h124v-37h35v37h130v32H24zm70 103h149v-47H94v47zm143 44c24 25 49 46 82 63l-22 31c-34-22-58-45-85-73zM17-1c31-17 57-42 79-67l26 20C100-20 71 8 38 28" id="A"/><g id="j"><use transform="matrix(0.07407407407407408,0,0,0.07407407407407408,0,0)" xlink:href="#A"/><use transform="matrix(0.07407407407407408,0,0,0.07407407407407408,25.03703703703704,0)" xlink:href="#y"/></g></defs></g></svg>